<svg id="Layer_1" data-name="Layer 1" xmlns="http://www.w3.org/2000/svg" viewBox="0 0 889.49 276.07"><defs><style>.cls-1{fill:#231f20;}.cls-2{fill:#ed1c24;}.cls-3{fill:#fff;}</style></defs><path class="cls-1" d="M249.64,258v67.62c0,21.49-10.43,30.26-36,30.26h-46.4v26.75h46.4c21.53,0,37-4.59,47.36-14s15.36-23.49,15.36-43V258Z" transform="translate(-167.26 -257.96)"/><rect class="cls-1" x="122.99" width="26.75" height="124.62"/><path class="cls-1" d="M438.43,258v69.25c0,22.87-10.15,30.59-40.21,30.59S358,350.08,358,327.21V258H330.61v69.25c0,39.42,20.65,57,67,57s67.12-17.59,67.12-57V258Z" transform="translate(-167.26 -257.96)"/><path class="cls-1" d="M588,258v67.62c0,21.49-10.42,30.26-36,30.26h-46.4v26.75H552c21.53,0,37-4.59,47.36-14s15.36-23.49,15.36-43V258Z" transform="translate(-167.26 -257.96)"/><rect class="cls-1" x="461.36" width="26.75" height="124.62"/><path d="M781.05,258H669.23v26.75h37v97.88H733V284.71h34.27A48,48,0,0,1,781.05,258Z" transform="translate(-167.26 -257.96)"/><path d="M874.63,307.55H820.31c-7.52,0-11.83-4.13-11.83-11.34,0-7.41,4.26-11.5,12-11.5h88.17V258H820.47c-24,0-39.55,14.25-39.55,36.3S796.68,331,820.15,331h54.48c9.61,0,14.28,4,14.28,12.32,0,7.93-5.21,12.48-14.28,12.48H782.71v26.75h91.92c24.6,0,39.88-14.47,39.88-37.77C914.51,320.44,900.72,307.55,874.63,307.55Z" transform="translate(-167.26 -257.96)"/><path class="cls-1" d="M1030.34,258v69.25c0,22.87-10.14,30.59-40.21,30.59s-40.21-7.72-40.21-30.59V258h-27.4v69.25c0,39.42,20.65,57,67,57s67.12-17.59,67.12-57V258Z" transform="translate(-167.26 -257.96)"/><path class="cls-1" d="M1042.38,468.34c7.86-5,12.24-13.84,12.24-25.24,0-21.09-15.51-33.69-41.51-33.69h-89.8v87.25l-48.59-80.72c-2.1-3.5-5.69-8.16-12.54-8.16-5.26,0-9.41,2.67-12.7,8.15l-54.87,91.36H733V409.41H706.2V534h103l52.12-88.14,21.11,35.45h-28.8l-13.3,22.84H896L913.81,534h101.75c24.63,0,41.18-15.64,41.18-38.91C1056.74,483.45,1051.38,473.7,1042.38,468.34Zm-35.31,39.11h-57V436.16h55.22c17.07,0,22.27,2.69,22.27,11.5,0,7-2.39,11.34-14.28,11.34H959.38v23.49h55.36c9.91,0,14.93,4.14,14.93,12.32C1029.67,497.94,1029.67,507.45,1007.07,507.45Z" transform="translate(-167.26 -257.96)"/><rect x="338.37" y="151.63" width="172.84" height="124.44"/><rect y="151.63" width="52.87" height="124.44"/><rect class="cls-2" x="123.38" y="151.63" width="27.28" height="124.44"/><rect class="cls-2" x="188.77" y="151.63" width="149.6" height="124.44"/><rect class="cls-2" x="52.87" y="151.63" width="32.39" height="124.44"/><rect class="cls-3" x="85.26" y="151.63" width="38.12" height="124.44"/><rect class="cls-3" x="150.65" y="151.63" width="38.12" height="124.44"/></svg>